# xmcd
#
# Track frame offsets: 
#        150
#        12241
#        23390
#        37592
#        48615
#        60951
#        72255
#        85582
#        97625
#        109362
#        120852
#        132417
#        144272
#        155832
#        168746
#        182848
#        194624
#        206413
#        218959
#        229189
#        239065
#        251078
#        263394
#        274860
#        286958
#        300394
#        314341
#        328610
#
# Disc length: 4510 seconds
#
# Revision: 1
# Processed by: cddbd v1.5.2PL0 Copyright (c) Steve Scherf et al.
# Submitted via: ExactAudioCopy v1.0b1
#
DISCID=83119c1c
DTITLE=The Lamplighters - Loving, Rocking, Thrilling
DYEAR=2005
DGENRE=Doo Wop
TTITLE0=I Used To Cry Mercy, Mercy (mono)
TTITLE1=Sad And Lonely (mono)
TTITLE2=Love, Rock And Thrill (mono)
TTITLE3=Be-Bop Wino (mono)
TTITLE4=Part Of Me (mono)
TTITLE5=Turn Me Loose (mono)
TTITLE6=Give Me (mono)
TTITLE7=Crazy Times (mono)
TTITLE8=I Can't Stand It (mono)
TTITLE9=Smoochie (mono)
TTITLE10=Tell Me You Care (mono)
TTITLE11=Ride, Jockey, Ride (mono)
TTITLE12=Hug A Little, Kiss A Little (mono)
TTITLE13=Tell It To Me (mono)
TTITLE14=Five Minutes Longer (mono)
TTITLE15=You Hear (mono)
TTITLE16=Salty Dog (mono)
TTITLE17=Don't Make It So Good (mono)
TTITLE18=Bo Peep (version 2) (mono)
TTITLE19=Yum Yum (mono)
TTITLE20=You Were Sent Down From Heaven (mono)
TTITLE21=Goody Good Things (mono)
TTITLE22=It Ain't Right (mono)
TTITLE23=Everything's All Right (mono)
TTITLE24=I Wanna Know (mono)
TTITLE25=Believe Me (mono)
TTITLE26=Roll On (mono)
TTITLE27=Bo Peep (version 1) (mono)
EXTD=
EXTT0=
EXTT1=
EXTT2=
EXTT3=
EXTT4=
EXTT5=
EXTT6=
EXTT7=
EXTT8=
EXTT9=
EXTT10=
EXTT11=
EXTT12=
EXTT13=
EXTT14=
EXTT15=
EXTT16=
EXTT17=
EXTT18=
EXTT19=
EXTT20=
EXTT21=
EXTT22=
EXTT23=
EXTT24=
EXTT25=
EXTT26=
EXTT27=
PLAYORDER=
